<svg width="618" height="84" viewBox="0 0 618 84" fill="none" xmlns="http://www.w3.org/2000/svg">
<path d="M90.1247 0H89.8574C87.1842 0 84.2437 0.26752 81.3032 1.07007C68.2046 4.28026 61.789 14.4459 60.7197 16.3185L42.5421 52.9682C42.0075 54.0382 40.6709 54.0382 40.1363 52.9682L15.2757 3.74523C14.2065 1.6051 11.8006 0 9.39474 0H3.78108C1.1079 0 -0.763323 2.94268 0.305948 5.35032L39.067 82.395C39.869 84.2676 42.5421 84.2676 43.3441 82.395L61.5217 45.7453L71.1451 25.9491C72.1758 24.0764 72.1758 24.0764 72.749 23.0064C76.4915 17.121 83.4417 13.3758 91.194 14.1784C99.7481 15.2484 106.431 22.2038 107.5 30.7644C108.035 35.5796 106.698 39.8599 104.293 43.3376C102.421 46.5478 99.7481 48.4204 97.6096 49.758C96.0057 50.8281 95.7384 52.9682 97.075 54.3058L101.352 58.051C103.491 59.9236 106.698 59.9236 108.837 58.051C111.243 55.9109 114.451 52.7007 117.124 48.1529C120.064 43.3376 121.935 37.4523 121.935 31.2994C121.668 14.1784 107.5 0 90.1247 0Z" fill="#348FEA"/>
<path d="M69.5411 47.3505L67.4025 51.6307C66.6006 53.2358 66.8679 55.1084 68.2045 56.446L94.6689 82.9301C95.4709 83.7327 96.5401 84.0002 97.6094 84.0002H105.362C109.104 84.0002 110.975 79.7199 108.837 77.5798L75.9567 46.0129C74.0855 44.1403 70.8776 44.9428 69.5411 47.3505Z" fill="#FFA930"/>
<path d="M89.0552 42.5351C94.5177 42.5351 98.9459 38.1036 98.9459 32.637C98.9459 27.1704 94.5177 22.7389 89.0552 22.7389C83.5927 22.7389 79.1644 27.1704 79.1644 32.637C79.1644 38.1036 83.5927 42.5351 89.0552 42.5351Z" fill="#FFA930"/>
<path d="M182.554 80.884C179.573 80.884 177.405 79.2582 176.05 76.2775L146.515 9.89045C145.702 7.72271 145.702 5.82593 146.786 4.47109C147.87 3.11626 149.225 2.57432 151.392 2.57432C153.018 2.57432 154.373 2.84528 155.186 3.65818C155.999 4.47109 156.812 5.55496 157.354 6.9098L182.825 65.9808L208.296 6.63883C208.838 5.284 209.65 4.20012 210.734 3.38722C211.547 2.57432 212.902 2.30334 214.528 2.30334C216.425 2.30334 217.779 3.11626 218.863 4.47109C219.676 5.82593 219.676 7.72271 218.863 9.89045L189.057 76.5485C188.515 78.1743 187.431 79.2582 186.618 80.0711C185.534 80.613 184.179 80.884 182.554 80.884Z" fill="#348FEA"/>
<path d="M239.186 81.1548C235.392 81.1548 232.141 80.3419 229.16 78.9871C226.179 77.6323 224.012 75.4645 222.115 73.0258C220.489 70.5871 219.676 67.6065 219.676 64.6258C219.676 60.5613 220.76 57.5806 222.657 55.4129C224.554 53.2452 228.076 51.6194 232.683 50.5355C237.289 49.4516 243.521 48.9097 251.379 48.9097H255.173V46.2C255.173 42.1355 254.36 39.1548 252.463 37.2581C250.838 35.3613 247.857 34.5484 243.792 34.5484C241.354 34.5484 238.915 34.8194 236.476 35.3613C234.038 35.9032 231.328 36.9871 228.618 38.3419C226.992 39.1548 225.909 39.1548 224.825 38.6129C223.741 38.071 223.199 37.2581 222.928 36.1742C222.657 35.0903 222.657 34.0065 222.928 32.6516C223.47 31.5678 224.283 30.4839 225.638 29.9419C228.889 28.5871 232.141 27.5032 235.121 26.6903C238.373 25.8774 241.083 25.6064 244.063 25.6064C251.379 25.6064 256.799 27.2323 260.321 30.7548C263.844 34.2774 265.47 39.6968 265.47 47.0129V75.1936C265.47 78.9871 263.844 80.8839 260.321 80.8839C256.799 80.8839 255.173 78.9871 255.173 75.1936V71.129C253.818 74.1097 251.921 76.5484 248.941 78.4452C246.502 80.3419 243.25 81.1548 239.186 81.1548ZM241.354 73.2968C245.418 73.2968 248.67 71.9419 251.109 69.2323C253.818 66.5226 255.173 63 255.173 58.6645V55.6839H251.65C246.231 55.6839 242.167 55.9548 239.186 56.4968C236.205 57.0387 234.038 57.8516 232.683 58.9355C231.328 60.0194 230.786 61.9161 230.786 63.8129C230.786 66.5226 231.599 68.6903 233.496 70.5871C235.392 72.4839 238.102 73.2968 241.354 73.2968Z" fill="#348FEA"/>
<path d="M297.986 81.155C292.296 81.155 287.96 79.5292 285.25 76.2775C282.27 73.0259 280.915 68.1485 280.915 61.9162V7.99367C280.915 4.20013 282.812 2.30334 286.334 2.30334C290.128 2.30334 292.025 4.20013 292.025 7.99367V61.3743C292.025 68.6905 295.005 72.213 300.696 72.213C301.238 72.213 302.05 72.213 302.321 72.213C302.863 72.213 303.405 72.213 303.947 72.213C304.76 72.213 305.573 72.484 305.844 73.0259C306.115 73.5679 306.386 74.6517 306.386 76.2775C306.386 79.2582 305.031 80.884 302.321 81.4259C301.508 81.4259 300.967 81.4259 300.154 81.6969C299.341 81.155 298.799 81.155 297.986 81.155Z" fill="#348FEA"/>
<path d="M333.482 81.1551C320.476 81.1551 314.244 74.1099 314.244 59.4777V31.568C314.244 27.7745 316.141 25.8777 319.663 25.8777C323.457 25.8777 325.353 27.7745 325.353 31.568V59.7487C325.353 64.0841 326.166 67.3357 328.063 69.2325C329.689 71.4003 332.67 72.2132 336.463 72.2132C340.528 72.2132 344.05 70.8583 346.489 68.1486C349.199 65.439 350.282 61.6454 350.282 57.039V31.568C350.282 27.7745 352.179 25.8777 355.973 25.8777C359.495 25.8777 361.392 27.7745 361.392 31.568V75.1938C361.392 78.9874 359.495 80.8841 355.973 80.8841C352.45 80.8841 350.553 78.9874 350.553 75.1938V71.4003C348.928 74.6519 346.489 76.8196 343.508 78.4454C340.528 80.3422 337.005 81.1551 333.482 81.1551Z" fill="#348FEA"/>
<path d="M383.612 80.8841C379.818 80.8841 377.922 78.9873 377.922 75.1938V9.07765C377.922 5.2841 379.818 3.38733 383.612 3.38733H409.625C418.025 3.38733 424.257 5.28411 428.863 9.34862C433.47 13.4131 435.638 18.8325 435.638 26.1486C435.638 31.8389 434.012 36.7164 431.031 40.2389C428.051 44.0325 423.715 46.4712 418.025 47.5551C421.547 48.639 424.528 51.6196 426.967 55.9551L436.451 73.568C437.534 75.4648 437.805 77.3615 436.992 78.9873C436.451 80.6131 434.825 81.426 432.386 81.426C430.76 81.426 429.405 81.1551 428.321 80.3422C427.238 79.8002 426.425 78.7164 425.612 77.0905L414.231 55.9551C412.605 53.2454 410.98 51.0777 408.812 50.2648C406.915 49.1809 404.205 48.9099 401.225 48.9099H388.76V75.7357C389.302 78.9873 387.405 80.8841 383.612 80.8841ZM389.302 39.968H407.999C419.109 39.968 424.799 35.3615 424.799 26.1486C424.799 16.9357 419.109 12.3293 407.999 12.3293H389.302V39.968Z" fill="#FFA930"/>
<path d="M467.341 81.1548C463.547 81.1548 460.296 80.3419 457.315 78.9871C454.334 77.6323 452.167 75.4645 450.27 73.0258C448.644 70.5871 447.831 67.6065 447.831 64.6258C447.831 60.5613 448.915 57.5806 450.812 55.4129C452.708 53.2452 456.231 51.6194 460.837 50.5355C465.444 49.4516 471.676 48.9097 479.534 48.9097H483.328V46.2C483.328 42.1355 482.515 39.1548 480.618 37.2581C478.992 35.3613 476.012 34.5484 471.947 34.5484C469.508 34.5484 467.07 34.8194 464.631 35.3613C462.192 35.9032 459.483 36.9871 456.773 38.3419C455.147 39.1548 454.063 39.1548 452.979 38.6129C451.896 38.071 451.354 37.2581 451.083 36.1742C450.812 35.0903 450.812 34.0065 451.083 32.6516C451.625 31.5678 452.437 30.4839 453.792 29.9419C457.044 28.5871 460.296 27.5032 463.276 26.6903C466.528 25.8774 469.237 25.6064 472.218 25.6064C479.534 25.6064 484.954 27.2323 488.476 30.7548C491.999 34.2774 493.625 39.6968 493.625 47.0129V75.1936C493.625 78.9871 491.999 80.8839 488.476 80.8839C484.954 80.8839 483.328 78.9871 483.328 75.1936V71.129C481.973 74.1097 480.076 76.5484 477.096 78.4452C474.657 80.3419 471.134 81.1548 467.341 81.1548ZM469.508 73.2968C473.573 73.2968 476.825 71.9419 479.263 69.2323C481.973 66.5226 483.328 63 483.328 58.6645V55.6839H479.805C474.386 55.6839 470.321 55.9548 467.341 56.4968C464.36 57.0387 462.192 57.8516 460.837 58.9355C459.483 60.0194 458.941 61.9161 458.941 63.8129C458.941 66.5226 459.754 68.6903 461.65 70.5871C463.547 72.4839 466.257 73.2968 469.508 73.2968Z" fill="#348FEA"/>
<path d="M514.489 80.8841C510.966 80.8841 509.07 78.9874 509.07 75.1938V31.568C509.07 27.7745 510.966 25.8777 514.489 25.8777C518.012 25.8777 519.908 27.7745 519.908 31.568V35.6325C521.805 32.3809 524.244 29.9422 527.495 28.3164C530.747 26.6906 534.27 25.8777 538.063 25.8777C550.799 25.8777 557.031 32.9228 557.031 47.2841V75.4648C557.031 79.2583 555.134 81.1551 551.612 81.1551C547.818 81.1551 545.921 79.2583 545.921 75.4648V48.097C545.921 43.4906 545.108 40.239 543.212 38.0712C541.315 35.9035 538.605 34.8196 534.812 34.8196C530.476 34.8196 526.683 36.1744 524.244 39.1551C521.534 41.8648 520.179 45.6583 520.179 50.2648V75.7357C520.179 79.2583 518.283 80.8841 514.489 80.8841Z" fill="#348FEA"/>
<path d="M577.353 80.884C573.831 80.884 571.934 78.9872 571.934 75.1937V7.99367C571.934 4.20013 573.831 2.30334 577.353 2.30334C581.147 2.30334 583.044 4.20013 583.044 7.99367V50.2646H583.315L603.637 29.9421C604.721 28.8582 605.805 27.7743 606.889 27.2324C607.702 26.6905 609.057 26.1485 610.682 26.1485C612.85 26.1485 614.476 26.9614 615.018 28.5872C615.831 30.213 615.289 31.8388 613.663 33.7356L594.424 52.7033L615.56 73.5679C616.644 74.6517 617.186 76.0066 617.186 77.0904C617.186 78.1743 616.644 79.2582 615.831 80.0711C615.018 80.884 613.934 81.155 612.579 81.155C610.953 81.155 609.599 80.884 608.515 80.0711C607.431 79.5292 606.347 78.4453 604.992 77.0904L583.044 55.955H582.773V75.4646C583.044 79.2582 581.147 80.884 577.353 80.884Z" fill="#348FEA"/>
</svg>
